<svg width="19" height="19" viewBox="0 0 19 19" fill="none" xmlns="http://www.w3.org/2000/svg">
<g id="Group">
<path id="Vector" d="M1.5 15.0255C1.5 13.9646 1.92143 12.9472 2.67157 12.1971C3.42172 11.4469 4.43913 11.0255 5.5 11.0255H13.5C14.5609 11.0255 15.5783 11.4469 16.3284 12.1971C17.0786 12.9472 17.5 13.9646 17.5 15.0255C17.5 15.5559 17.2893 16.0647 16.9142 16.4397C16.5391 16.8148 16.0304 17.0255 15.5 17.0255H3.5C2.96957 17.0255 2.46086 16.8148 2.08579 16.4397C1.71071 16.0647 1.5 15.5559 1.5 15.0255Z" stroke="#F9F9F9" stroke-width="2" stroke-linejoin="round"/>
<path id="Vector_2" d="M9.5 7.02551C11.1569 7.02551 12.5 5.68237 12.5 4.02551C12.5 2.36866 11.1569 1.02551 9.5 1.02551C7.84315 1.02551 6.5 2.36866 6.5 4.02551C6.5 5.68237 7.84315 7.02551 9.5 7.02551Z" stroke="#F9F9F9" stroke-width="2"/>
</g>
</svg>
