<svg width="16" height="17" viewBox="0 0 16 17" fill="none" xmlns="http://www.w3.org/2000/svg">
<g id="Group">
<path id="Vector" d="M15.5447 15.2055L12.6472 12.308C13.6962 11.065 14.3335 9.46112 14.3335 7.70837C14.3335 3.77379 11.1431 0.583374 7.2085 0.583374C3.27391 0.583374 0.0834961 3.77379 0.0834961 7.70837C0.0834961 11.643 3.27391 14.8334 7.2085 14.8334C8.96204 14.8334 10.5652 14.1969 11.8065 13.1471L14.704 16.0446C14.8204 16.1602 14.9732 16.2188 15.1236 16.2188C15.274 16.2188 15.4284 16.161 15.5432 16.0446C15.7767 15.8127 15.7767 15.4374 15.5447 15.2055ZM1.271 7.70837C1.271 4.43483 3.93495 1.77087 7.2085 1.77087C10.482 1.77087 13.146 4.43483 13.146 7.70837C13.146 10.9819 10.482 13.6459 7.2085 13.6459C3.93495 13.6459 1.271 10.9819 1.271 7.70837Z" fill="#737373"/>
</g>
</svg>
